# xmcd
#
# Track frame offsets:
#	150
#	16529
#	34781
#	47648
#	61639
#	76798
#	93677
#	109174
#	143194
#	157585
#	175397
#	192942
#	207652
#	224476
#	237132
#	254736
#	273525
#	288108
#	304262
#
# Disc length: 4348 seconds
#
# Revision: 2
# Processed by: cddbd v1.4b41PL1 Copyright (c) Steve Scherf et al.
# Submitted via: EZCDDA 4.3.2
#
DISCID=0a10fa13
DTITLE=MIXED - MARKS MUSIC
DYEAR=1900
DGENRE=
TTITLE0=All Cried Outshort(Allison Moyet)
TTITLE1=Believe Cher 
TTITLE2=Ben Boyzone 
TTITLE3=Dannny's Song Anne Murry-
TTITLE4=Betterman Robbie William 
TTITLE5=Bittersweet Goodbye Kylie Minogue
TTITLE6=Across The Lines Tracey Chapman
TTITLE7=On A Night Like This Kylie Minogue
TTITLE8=For You Tracey Chapman
TTITLE9=Hurt Me so Bad LULU 
TTITLE10=Love Resurection Allison Moyet -
TTITLE11=Baby Can I Hold You Tracey Chapman 
TTITLE12=Whispering You Allison Moyet 
TTITLE13=Father And Son Boyzone
TTITLE14=Nobody Loves Me Like You Do Anne Murry
TTITLE15=Please Stay  Kylie Mingou
TTITLE16=For My Lover Tracey Chapman 
TTITLE17=Your Disco Needs You Kylie Minoque 
TTITLE18=House Of Hope Tony Childs
EXTD=
EXTT0=
EXTT1=
EXTT2=
EXTT3=
EXTT4=
EXTT5=
EXTT6=
EXTT7=
EXTT8=
EXTT9=
EXTT10=
EXTT11=
EXTT12=
EXTT13=
EXTT14=
EXTT15=
EXTT16=
EXTT17=
EXTT18=
PLAYORDER=
